<?xml version="1.0" encoding="UTF-8" standalone="no"?>
<svg
   xmlns:dc="http://purl.org/dc/elements/1.1/"
   xmlns:cc="http://creativecommons.org/ns#"
   xmlns:rdf="http://www.w3.org/1999/02/22-rdf-syntax-ns#"
   xmlns:svg="http://www.w3.org/2000/svg"
   xmlns="http://www.w3.org/2000/svg"
   xmlns:sodipodi="http://sodipodi.sourceforge.net/DTD/sodipodi-0.dtd"
   xmlns:inkscape="http://www.inkscape.org/namespaces/inkscape"
   width="48"
   height="48"
   viewBox="0 0 12.7 12.7"
   version="1.1"
   id="svg18"
   inkscape:version="1.0.2 (e86c8708, 2021-01-15)"
   sodipodi:docname="jh_logo.svg"
   inkscape:export-filename="/Users/jasonholtzen/Downloads/jh_logo.png"
   inkscape:export-xdpi="1440"
   inkscape:export-ydpi="1440">
  <defs
     id="defs12" />
  <sodipodi:namedview
     id="base"
     pagecolor="#ffffff"
     bordercolor="#666666"
     borderopacity="1.0"
     inkscape:pageopacity="0.0"
     inkscape:pageshadow="2"
     inkscape:zoom="11.313708"
     inkscape:cx="18.524401"
     inkscape:cy="18.586225"
     inkscape:document-units="px"
     inkscape:current-layer="layer1"
     inkscape:document-rotation="0"
     showgrid="false"
     units="px"
     inkscape:snap-grids="true"
     inkscape:snap-to-guides="true"
     inkscape:snap-object-midpoints="true"
     inkscape:snap-nodes="true"
     inkscape:snap-bbox="true"
     inkscape:snap-bbox-edge-midpoints="true"
     inkscape:snap-intersection-paths="true"
     inkscape:window-width="1920"
     inkscape:window-height="1027"
     inkscape:window-x="0"
     inkscape:window-y="385"
     inkscape:window-maximized="0"
     inkscape:snap-smooth-nodes="true"
     inkscape:snap-midpoints="true"
     inkscape:object-paths="true" />
  <metadata
     id="metadata15">
    <rdf:RDF>
      <cc:Work
         rdf:about="">
        <dc:format>image/svg+xml</dc:format>
        <dc:type
           rdf:resource="http://purl.org/dc/dcmitype/StillImage" />
        <dc:title></dc:title>
      </cc:Work>
    </rdf:RDF>
  </metadata>
  <g
     inkscape:label="Layer 1"
     inkscape:groupmode="layer"
     id="layer1">
    <circle
       style="fill:#ffffff;fill-opacity:1;stroke-width:0.264583"
       id="path3363"
       cx="6.3499999"
       cy="-6.3499999"
       r="6.3499999"
       transform="scale(1,-1)" />
    <path
       id="path862"
       style="opacity:1;fill:#ff6600;fill-opacity:0.75;stroke-width:0.264583"
       d="m 5.189088,1.6477968 v 3.3569009 2.9770792 a 1.0583332,-1.0583332 0 0 1 0,0.01602 A 1.0583332,-1.0583332 0 0 1 4.1307547,9.0561299 1.0583332,-1.0583332 0 0 1 3.0724214,7.9977966 H 0.95575466 a 3.175,-3.175 0 0 0 3.17500004,3.1749994 3.175,-3.175 0 0 0 3.175,-3.1749994 V 1.6477968 Z" />
    <path
       id="rect925"
       style="opacity:1;fill:#800080;fill-opacity:0.75;stroke-width:0.229136"
       d="m 5.189088,1.6477968 v 6.3339801 a 1.0583332,-1.0583332 0 0 1 0,0.01602 3.175,-3.175 0 0 0 1.0588501,2.3662631 3.175,-3.175 0 0 0 1.0578166,-2.3502434 1.0583332,-1.0583332 0 0 1 0,-0.01602 V 1.6477968 Z m 3.175,3.1749998 a 3.175,-3.175 0 0 0 -3.175,3.175 h 2.1166667 a 1.0583332,-1.0583332 0 0 1 1.0423136,-1.0583333 1.0583332,-1.0583332 0 0 1 0.01602,0 1.0583332,-1.0583332 0 0 1 1.0583333,1.0583333 v 2.9936144 0.181385 H 11.539087 V 7.9977966 a 3.175,-3.175 0 0 0 -3.174999,-3.175 z" />
    <rect
       style="display:none;opacity:1;fill:#000000;fill-opacity:0.5;stroke-width:0.268459"
       id="rect1043"
       width="2.1166666"
       height="8.7165051"
       x="5.2916665"
       y="0" />
  </g>
</svg>
